<svg id="Logos" xmlns="http://www.w3.org/2000/svg" viewBox="0 0 779.51 243.11"><defs><style>.cls-1{fill:#e00;}</style></defs><title>Logo-Red_Hat-CodeReady-A-Standard-RGB</title><path d="M285.64,200.82l7.18,7.28a39.68,39.68,0,0,1-29.12,12.58c-21.63,0-38.17-16.53-38.17-37.54s16.64-37.55,38.17-37.55c11.44,0,22.36,4.68,29.33,12.59l-7.28,7.48a29,29,0,0,0-22.05-10c-15.39,0-27,11.86-27,27.46s11.75,27.45,27.35,27.45A28.21,28.21,0,0,0,285.64,200.82Z"/><path d="M325.37,165.56A27.51,27.51,0,1,1,297.81,193,27.17,27.17,0,0,1,325.37,165.56Zm0,9.15c-9.67,0-17.37,8-17.37,18.31s7.6,18.41,17.37,18.41,17.37-8.12,17.37-18.41S335,174.71,325.37,174.71Z"/><path d="M403.27,214.55A25,25,0,0,1,387,220.37c-15.08,0-26.73-12.17-26.73-27.35s11.65-27.25,26.94-27.25a26.48,26.48,0,0,1,15.91,5.2V146.74l10.4-2.29v75.09H403.27Zm-14.77-3.23A18.94,18.94,0,0,0,403.16,205V181a19.76,19.76,0,0,0-14.66-6.24c-10.3,0-18,7.91-18,18.2C370.51,203.42,378.41,211.32,388.5,211.32Z"/><path d="M449.86,165.77c14.56,0,25.58,12.06,25.58,27.66v3H433.63a17.86,17.86,0,0,0,17.89,15.18A20.56,20.56,0,0,0,464.94,207l6.65,6.56a31.23,31.23,0,0,1-20.49,7c-15.59,0-27.76-12-27.76-27.45C423.34,177.83,434.88,165.77,449.86,165.77Zm-16.12,22.88h31.41c-1.46-8.11-7.8-14.15-15.5-14.15C441.54,174.5,435.3,180.33,433.74,188.65Z"/><path d="M486.57,146.74h33.07c15.08,0,24.23,9.36,24.23,21.52,0,9.47-5.72,16.85-15,20l16.22,31.31H533.06L518,189.69H497.49v29.85H486.57Zm10.92,9.56v24.34h21.22c9.15,0,14.14-5.41,14.14-12.17s-5-12.17-14.14-12.17Z"/><path d="M574.76,165.77c14.56,0,25.59,12.06,25.59,27.66v3H558.54a17.84,17.84,0,0,0,17.89,15.18A20.53,20.53,0,0,0,589.84,207l6.66,6.56a31.25,31.25,0,0,1-20.49,7c-15.6,0-27.77-12-27.77-27.45C548.24,177.83,559.78,165.77,574.76,165.77Zm-16.12,22.88h31.41c-1.46-8.11-7.8-14.15-15.5-14.15C566.44,174.5,560.2,180.33,558.64,188.65Z"/><path d="M606.9,204.35c0-10.6,9-16.12,21.42-16.12a36.5,36.5,0,0,1,14.46,2.92v-5.62c0-7.49-4.47-11.23-12.9-11.23-5.1,0-10.29,1.56-16.43,4.47L609.6,171c7.49-3.54,14.35-5.41,21.74-5.41,13.62,0,21.63,6.66,21.63,18.93v35H642.78V215a24.9,24.9,0,0,1-16.43,5.51C614.8,220.47,606.9,213.82,606.9,204.35Zm21.84,8.43a20.41,20.41,0,0,0,14-5v-9.26a27.79,27.79,0,0,0-13.63-3.12c-7.28,0-12.27,3.22-12.27,8.74C616.88,209.35,621.77,212.78,628.74,212.78Z"/><path d="M705.59,214.55a25,25,0,0,1-16.22,5.82c-15.08,0-26.73-12.17-26.73-27.35s11.65-27.25,26.94-27.25a26.5,26.5,0,0,1,15.91,5.2V146.74l10.4-2.29v75.09h-10.3Zm-14.77-3.23A19,19,0,0,0,705.49,205V181a19.8,19.8,0,0,0-14.67-6.24c-10.29,0-18,7.91-18,18.2C672.83,203.42,680.74,211.32,690.82,211.32Z"/><path d="M743.34,219.64l-21.11-53h11.44l15.5,40.46,17.05-40.46h11.24l-25.28,58.66c-4.78,10.92-10.19,15.81-20.28,15.81a22.88,22.88,0,0,1-5.51-.52V231.4a17.71,17.71,0,0,0,4.58.41c4.47,0,8-2.08,10.5-7.8Z"/><path class="cls-1" d="M129,85c12.51,0,30.61-2.58,30.61-17.46a14,14,0,0,0-.31-3.42l-7.45-32.36c-1.72-7.12-3.23-10.35-15.73-16.6C126.39,10.19,105.26,2,99,2c-5.82,0-7.55,7.54-14.45,7.54-6.68,0-11.64-5.6-17.89-5.6-6,0-9.91,4.09-12.93,12.5,0,0-8.41,23.72-9.49,27.16A6.43,6.43,0,0,0,44,45.54C44,54.76,80.33,85,129,85m32.55-11.42c1.73,8.19,1.73,9.05,1.73,10.13,0,14-15.74,21.77-36.43,21.77C80,105.47,39.08,78.1,39.08,60a18.45,18.45,0,0,1,1.51-7.33C23.77,53.52,2,56.54,2,75.72,2,107.2,76.59,146,135.65,146c45.28,0,56.7-20.48,56.7-36.65,0-12.72-11-27.16-30.83-35.78"/><path d="M161.52,73.57c1.73,8.19,1.73,9.05,1.73,10.13,0,14-15.74,21.77-36.43,21.77C80,105.47,39.08,78.1,39.08,60a18.45,18.45,0,0,1,1.51-7.33l3.66-9.06A6.43,6.43,0,0,0,44,45.54C44,54.76,80.33,85,129,85c12.51,0,30.61-2.58,30.61-17.46a14,14,0,0,0-.31-3.42Z"/><path d="M581.24,94.3c0,11.89,7.15,17.67,20.19,17.67a52.11,52.11,0,0,0,11.89-1.68V96.51a24.84,24.84,0,0,1-7.68,1.16c-5.37,0-7.36-1.68-7.36-6.73V69.8h15.56V55.6H598.28v-18l-17,3.68V55.6H570V69.8h11.25Zm-53,.32c0-3.68,3.69-5.47,9.26-5.47a43.12,43.12,0,0,1,10.1,1.26v7.15A21.51,21.51,0,0,1,537,100.19c-5.46,0-8.73-2.1-8.73-5.57m5.2,17.56c6,0,10.84-1.26,15.36-4.31v3.37h16.82V75.58c0-13.56-9.14-21-24.39-21-8.52,0-16.94,2-26,6.1l6.1,12.52c6.52-2.74,12-4.42,16.83-4.42,7,0,10.62,2.73,10.62,8.31v2.73a49.53,49.53,0,0,0-12.62-1.58c-14.31,0-22.93,6-22.93,16.73,0,9.78,7.78,17.24,20.19,17.24m-92.44-.94h18.09V82.42h30.29v28.82h18.09V37.62H489.43V65.91H459.14V37.62H441.05ZM372.12,83.37c0-8,6.31-14.1,14.62-14.1a17.22,17.22,0,0,1,11.78,4.32V93a16.36,16.36,0,0,1-11.78,4.42c-8.2,0-14.62-6.1-14.62-14.09m26.61,27.87h16.83V33.94l-17,3.68V58.55a28.3,28.3,0,0,0-14.2-3.68c-16.19,0-28.92,12.51-28.92,28.5A28.25,28.25,0,0,0,383.8,112a25.12,25.12,0,0,0,14.93-4.83Zm-77.19-42.7c5.36,0,9.88,3.47,11.67,8.83H310c1.68-5.57,5.89-8.83,11.57-8.83M292.83,83.47c0,16.2,13.25,28.82,30.28,28.82,9.36,0,16.2-2.53,23.25-8.42l-11.26-10c-2.63,2.74-6.52,4.21-11.14,4.21a14.39,14.39,0,0,1-13.68-8.83h39.65V85.05c0-17.67-11.88-30.39-28.08-30.39a28.57,28.57,0,0,0-29,28.81M263.49,53.08c6,0,9.36,3.78,9.36,8.31s-3.37,8.31-9.36,8.31H245.61V53.08Zm-36,58.16h18.09V84.42h13.77l13.89,26.82h20.19l-16.2-29.45a22.27,22.27,0,0,0,13.88-20.72c0-13.25-10.41-23.45-26-23.45H227.52Z"/></svg>